# xmcd
#
# Track frame offsets: 
#        150
#        17649
#        34231
#        49693
#        64775
#        90877
#        108614
#        125784
#        137243
#        147018
#        171652
#        190577
#
# Disc length: 2669 seconds
#
# Revision: 3
# Processed by: cddbd v1.5.2PL0 Copyright (c) Steve Scherf et al.
# Submitted via: ExactAudioCopy v1.0b3
#
DISCID=a90a6b0c
DTITLE=Reverend Rusty and The Case - Born For The Blues
DYEAR=1997
DGENRE=Blues
TTITLE0=Shake Your Moneymaker
TTITLE1=Wait On Time
TTITLE2=Work For Your Dreams
TTITLE3=Born For The Blues
TTITLE4=Lonesome Guitar
TTITLE5=Big Boss Man
TTITLE6=Chitlins Con Carne
TTITLE7=Westend Bound
TTITLE8=Rusty's Twang
TTITLE9=Fool For Your Stockings
TTITLE10=The Sky Is Crying
TTITLE11=Down In Lousiana
EXTD=1997 Viceroots
EXTT0=
EXTT1=
EXTT2=
EXTT3=
EXTT4=
EXTT5=
EXTT6=
EXTT7=
EXTT8=
EXTT9=
EXTT10=
EXTT11=
PLAYORDER=
